<svg xmlns="http://www.w3.org/2000/svg" width="372" height="78" viewBox="0 0 372 78" class="editor-view__logo-preview" data-v-7b637543="" data-v-e67b9e79=""><svg id="mark" viewBox="0 0 52 52" width="78" height="78" x="0" y="0" data-v-7b637543="" style="fill: rgb(7, 66, 91);"><rect x="0" y="0" width="100%" height="100%" fill="none" data-v-7b637543=""></rect><g data-v-7b637543=""><g xmlns="http://www.w3.org/2000/svg"><path d="M13.9549322,23.4346619H4.7567515C3.6683114,25.646759,3.035804,28.061615,2.9021981,30.54599h10.500061   C13.4429083,28.0139465,13.6307135,25.6214294,13.9549322,23.4346619z"></path><path d="M22.4311905,13.131012c-0.0343628-0.0020752-0.0689087-0.0028076-0.1033325-0.0046997v8.3083496h3.9536133   C25.3619766,17.1247864,23.9168472,14.1423645,22.4311905,13.131012z"></path><path d="M16.3742447,21.4346619h3.9536133v-8.3215332c-0.0281372,0.0015259-0.0565796,0.0010986-0.0846558,0.0026855   C18.7510147,14.1148376,17.2976456,17.1066589,16.3742447,21.4346619z"></path><path d="M13.4023199,32.54599H2.9023812c0.1344604,2.4777222,0.7680054,4.8971558,1.8576052,7.1230469h9.1970215   C13.631568,37.4792175,13.4432135,35.082489,13.4023199,32.54599z"></path><path d="M26.6541519,23.4346619H22.327858V30.54599h4.9257813C27.2087173,27.95755,26.9956436,25.5681458,26.6541519,23.4346619z"></path><path d="M28.6987076,39.6690369h9.2051392c1.0892944-2.2255859,1.7228394-4.6450806,1.8572998-7.1230469H29.2533951   C29.2125015,35.082489,29.024147,37.4792175,28.6987076,39.6690369z"></path><path d="M22.327858,41.6690369v8.3169556c0.0233765-0.0012207,0.0471191-0.0009155,0.0705566-0.0022583   c1.4953613-0.9884033,2.9532471-3.9814453,3.8797607-8.3146973H22.327858z"></path><path d="M20.2569962,49.98349c0.0234985,0.0013428,0.0473633,0.0010376,0.0708618,0.0022583v-8.3167114h-3.9503174   C17.3039322,46.0019836,18.7616959,48.9949036,20.2569962,49.98349z"></path><path d="M27.2535782,32.54599H22.327858v7.1230469h4.3236694C26.9943619,37.5326233,27.2083511,35.1392517,27.2535782,32.54599z"></path><path d="M15.4020758,30.54599h4.9257822v-7.1113281H16.001564C15.6600714,25.5681458,15.4469976,27.95755,15.4020758,30.54599z"></path><path d="M5.8978648,41.6690369c2.6313472,4.0211182,6.6185908,6.7849121,11.1766968,7.8511963   c-1.175416-1.9049683-2.1333017-4.5905762-2.7758799-7.8511963H5.8978648z"></path><path d="M25.5798111,49.5223083c4.5615845-1.0647583,8.5523682-3.8292847,11.1861572-7.8532715h-8.4089355   C27.7142105,44.9308777,26.7558975,47.617218,25.5798111,49.5223083z"></path><path d="M17.0668716,13.5799255c-4.5593882,1.0679932-8.5436411,3.8335571-11.1673584,7.8547363h8.3964233   C14.937171,18.1742859,15.8931036,15.4872131,17.0668716,13.5799255z"></path><path d="M28.6923599,21.4346619c-0.1889038-1.0521851-0.418457-2.4578247-0.6115723-4.0263672   c-0.133667-1.1260376-0.2161865-2.1640625-0.265625-3.1466675c-0.7214355-0.2710571-1.4628296-0.4797363-2.2119312-0.6589355   c1.1672535,1.9059448,2.1179371,4.5848389,2.7565479,7.8319702H28.6923599z"></path><path d="M16.0041885,39.6690369h4.3236694V32.54599h-4.9257212C15.4473639,35.1392517,15.6613531,37.5326233,16.0041885,39.6690369   z"></path><path d="M39.7506485,30.54599c-0.1016235-1.8312378-0.4634399-3.6343384-1.09198-5.3458862   c-0.328186,0.1447144-0.6591797,0.2894897-1.001709,0.4347534c-1.9375,0.828125-3.6396484,1.4589844-4.2685547,1.6650391   c-0.3232422,0.1230469-0.6640625,0.1845703-1.0126953,0.1845703c-0.5126953,0-1.0224781-0.1367188-1.4746094-0.3955078   c-0.6855469-0.3544922-1.2402344-1.0595703-1.4462891-1.8945313c-0.005188-0.0198975-0.1613159-0.6845093-0.3771362-1.7597656   h-0.3768921c0.3242188,2.1867676,0.5120239,4.5792847,0.5526733,7.1113281H39.7506485z"></path><path d="M48.6957779,9.0440369c-0.7300415-2.5100098-2.3900146-4.5700073-4.6800537-5.8200073   c-1.4299927-0.789978-3.0599976-1.210022-4.6900024-1.210022c-3.5599976,0-6.8499756,1.9500122-8.5699463,5.0800171   c-1.0200195,1.8800049-1.2600098,5.2700195-0.6900024,10.0700073c0.289978,2.3599854,0.6799927,4.4400024,0.8899536,5.4599609   c0.25,1.2800293,0.4400024,2.0900269,0.4400024,2.0900269c0.0700073,0.2800293,0.25,0.5100098,0.5,0.6400146   c0.1400146,0.0800171,0.3099976,0.1300049,0.4800415,0.1300049c0.1099854,0,0.2199707-0.0200195,0.3200073-0.0599976   c0.0799561-0.0200195,1.8399658-0.6300049,4.1799927-1.6300049c6.0599976-2.5700073,9.7699585-5.0300293,11.0199585-7.3099976   C49.1457291,14.1940002,49.4357681,11.5440369,48.6957779,9.0440369z M44.0157242,14.3540344   c-0.3200073,0.5760498-0.7415771,1.0705566-1.2263184,1.4834595c-0.9540405,0.8150024-2.1743774,1.2905273-3.4683838,1.2905273   c-0.8925781,0-1.7792969-0.2285156-2.5654297-0.6611328c-0.3369751-0.1838989-0.6425171-0.4022217-0.9222412-0.6434937   c-1.8618774-1.6000977-2.4234009-4.3477173-1.1976318-6.5993652c0.9500122-1.7200317,2.7400513-2.7800293,4.7000122-2.7800293   c0.8900146,0,1.7700195,0.2300415,2.5599976,0.6600342c1.25,0.6799927,2.1500244,1.8099976,2.5599976,3.1799927   C44.855751,11.6540222,44.6957779,13.1040344,44.0157242,14.3540344z"></path></g></g></svg><svg id="name" viewBox="0 0 278.8059997558594 46" width="278" height="45.867018683952296" x="94" y="6.000869888756824" data-v-7b637543="" style="fill: rgb(7, 66, 91);"><rect x="0" y="0" width="100%" height="100%" fill="none" data-v-7b637543=""></rect><g data-v-7b637543=""><path xmlns="http://www.w3.org/2000/svg" d="M12.33 17.94L12.33 17.94L12.83 17.11Q16.01 17.11 18.33 18.12Q20.65 19.14 21.94 20.91Q23.23 22.68 23.23 25.02L23.23 25.02Q23.23 27.42 21.85 29.35Q20.47 31.28 18.05 32.41Q15.64 33.53 12.60 33.53L12.60 33.53Q11.36 33.53 9.45 33.40Q7.54 33.26 5.98 33.26L5.98 33.26Q4.32 33.26 2.83 33.30Q1.33 33.35 0.14 33.35L0.14 33.35Q0 33.35 0 33.07Q0 32.80 0.14 32.80L0.14 32.80Q1.43 32.80 2.14 32.57Q2.85 32.34 3.15 31.65Q3.45 30.96 3.45 29.62L3.45 29.62L3.45 8.33Q3.45 6.99 3.17 6.33Q2.90 5.66 2.18 5.41Q1.47 5.15 0.18 5.15L0.18 5.15Q0.09 5.15 0.09 4.88Q0.09 4.60 0.18 4.60L0.18 4.60Q1.38 4.60 2.85 4.67Q4.32 4.74 5.98 4.74L5.98 4.74Q7.31 4.74 8.74 4.60Q10.17 4.46 11.64 4.46L11.64 4.46Q14.40 4.46 16.35 5.13Q18.31 5.80 19.37 7.11Q20.42 8.42 20.42 10.40L20.42 10.40Q20.42 12.93 18.40 15.02Q16.38 17.11 12.33 17.94ZM10.95 5.47L10.95 5.47Q10.07 5.47 9.54 5.75Q9.02 6.03 8.81 6.65Q8.60 7.27 8.60 8.42L8.60 8.42L8.60 17.43L6.90 17.11Q8.42 17.16 9.38 17.18Q10.35 17.20 10.44 17.20L10.44 17.20Q12.93 17.20 14.17 15.34Q15.41 13.48 15.41 10.81L15.41 10.81Q15.41 9.06 14.88 7.87Q14.35 6.67 13.36 6.07Q12.37 5.47 10.95 5.47ZM11.82 32.38L11.82 32.38Q15.00 32.38 16.42 30.75Q17.85 29.12 17.85 26.13L17.85 26.13Q17.85 22.72 16.21 20.59Q14.58 18.45 10.99 18.45L10.99 18.45Q10.53 18.45 9.43 18.47Q8.33 18.49 7.08 18.72L7.08 18.72L8.60 18.17L8.60 29.62Q8.60 30.54 8.81 31.17Q9.02 31.79 9.71 32.09Q10.40 32.38 11.82 32.38ZM6.90 17.11L6.90 17.11ZM27.42 33.35L27.42 33.35Q27.28 33.35 27.28 33.07Q27.28 32.80 27.42 32.80L27.42 32.80Q28.84 32.80 29.35 32.13Q29.85 31.46 29.85 29.62L29.85 29.62L29.85 21.39Q29.85 19.87 29.55 19.16Q29.26 18.45 28.47 18.45L28.47 18.45Q28.15 18.45 27.71 18.58Q27.28 18.72 26.77 18.95L26.77 18.95Q26.59 19.00 26.47 18.72Q26.36 18.45 26.50 18.40L26.50 18.40L33.44 15.18Q33.53 15.13 33.58 15.13L33.58 15.13Q33.81 15.13 34.04 15.36Q34.27 15.59 34.27 15.78L34.27 15.78Q34.27 16.33 34.22 17.62Q34.18 18.91 34.18 21.30L34.18 21.30L34.18 29.62Q34.18 31.46 34.71 32.13Q35.24 32.80 36.66 32.80L36.66 32.80Q36.80 32.80 36.80 33.07Q36.80 33.35 36.66 33.35L36.66 33.35Q35.74 33.35 34.55 33.30Q33.35 33.26 32.02 33.26L32.02 33.26Q30.73 33.26 29.53 33.30Q28.34 33.35 27.42 33.35ZM31.83 10.58L31.83 10.58Q30.54 10.58 29.79 9.84Q29.03 9.11 29.03 7.77L29.03 7.77Q29.03 6.58 29.79 5.87Q30.54 5.15 31.83 5.15L31.83 5.15Q33.12 5.15 33.81 5.87Q34.50 6.58 34.50 7.77L34.50 7.77Q34.50 10.58 31.83 10.58ZM46.18 33.90L46.18 33.90Q45.08 33.90 43.95 33.53Q42.83 33.17 42.07 32.25Q41.31 31.33 41.31 29.67L41.31 29.67L41.31 19.46Q41.31 18.49 41.08 17.94Q40.85 17.39 40.34 17.16Q39.84 16.93 38.96 16.93L38.96 16.93Q38.78 16.93 38.78 16.51Q38.78 16.10 38.96 16.10L38.96 16.10Q41.31 16.01 42.78 15.07Q44.25 14.12 44.99 12.28L44.99 12.28Q45.08 12.10 45.38 12.10Q45.68 12.10 45.68 12.28L45.68 12.28L45.68 28.15Q45.68 29.99 46.62 30.77Q47.56 31.56 48.94 31.56L48.94 31.56Q50.00 31.56 50.95 31.12Q51.89 30.68 52.53 30.18L52.53 30.18Q52.67 30.04 52.88 30.25Q53.08 30.45 52.90 30.59L52.90 30.59Q51.20 32.29 49.61 33.10Q48.02 33.90 46.18 33.90ZM51.47 17.94L51.47 17.94Q49.59 17.53 47.82 17.37Q46.05 17.20 44.07 17.20L44.07 17.20L44.07 16.01Q45.95 16.01 47.77 15.87Q49.59 15.73 51.66 15.55L51.66 15.55Q51.75 15.55 51.86 15.89Q51.98 16.24 51.98 16.65L51.98 16.65Q51.98 17.11 51.82 17.55Q51.66 17.99 51.47 17.94ZM54.79 33.35L54.79 33.35Q54.69 33.35 54.69 33.07Q54.69 32.80 54.79 32.80L54.79 32.80Q56.21 32.80 56.74 32.13Q57.27 31.46 57.27 29.62L57.27 29.62L57.32 6.26Q57.32 4.69 57.04 3.98Q56.76 3.27 55.98 3.27L55.98 3.27Q55.38 3.27 54.23 3.77L54.23 3.77Q54.10 3.82 53.96 3.54Q53.82 3.27 53.91 3.22L53.91 3.22L60.67 0.05Q60.77 0 60.86 0L60.86 0Q61.09 0 61.36 0.21Q61.64 0.41 61.64 0.60L61.64 0.60L61.64 29.62Q61.64 31.46 62.15 32.13Q62.65 32.80 64.08 32.80L64.08 32.80Q64.26 32.80 64.26 33.07Q64.26 33.35 64.08 33.35L64.08 33.35Q63.20 33.35 61.98 33.30Q60.77 33.26 59.43 33.26L59.43 33.26Q58.10 33.26 56.90 33.30Q55.71 33.35 54.79 33.35ZM76.41 33.95L76.41 33.95Q73.51 33.95 71.39 32.61Q69.28 31.28 68.13 29.05Q66.98 26.82 66.98 24.24L66.98 24.24Q66.98 21.85 67.90 20.10Q68.82 18.35 70.33 17.23Q71.85 16.10 73.65 15.55Q75.44 15.00 77.19 15.00L77.19 15.00Q80.13 15.00 82.23 16.38Q84.32 17.76 85.42 19.92Q86.53 22.08 86.53 24.52L86.53 24.52Q86.53 27.32 85.12 29.46Q83.72 31.60 81.42 32.77Q79.12 33.95 76.41 33.95ZM77.79 32.98L77.79 32.98Q79.63 32.98 80.55 31.19Q81.47 29.39 81.47 26.13L81.47 26.13Q81.47 22.77 80.62 20.52Q79.76 18.26 78.43 17.11Q77.10 15.96 75.62 15.96L75.62 15.96Q73.83 15.96 72.89 17.57Q71.94 19.18 71.94 22.54L71.94 22.54Q71.94 25.67 72.73 28.04Q73.51 30.41 74.84 31.69Q76.18 32.98 77.79 32.98ZM107.41 31.37L102.67 33.63Q102.49 33.72 102.21 33.72L102.21 33.72Q101.38 33.72 100.56 32.61Q99.73 31.51 99.73 29.44L99.73 29.44L99.73 21.62Q99.73 19.83 99.50 18.63Q99.27 17.43 98.76 16.84Q98.26 16.24 97.38 16.24L97.38 16.24Q96.69 16.24 96.14 16.58Q95.59 16.93 95.27 17.69Q94.94 18.45 94.85 19.78L94.85 19.78Q94.71 21.11 94.02 21.73Q93.33 22.36 92.14 22.36L92.14 22.36Q90.99 22.36 90.48 21.85Q89.98 21.34 89.98 20.47L89.98 20.47Q89.98 19.46 90.94 18.52Q91.91 17.57 93.36 16.81Q94.81 16.05 96.37 15.62Q97.93 15.18 99.18 15.18L99.18 15.18Q101.20 15.18 102.63 16.40Q104.05 17.62 104.05 20.24L104.05 20.24L104.05 28.38Q104.05 29.72 104.53 30.45Q105.02 31.19 105.89 31.19L105.89 31.19Q106.54 31.19 107.23 30.87L107.23 30.87Q107.41 30.77 107.53 31.03Q107.64 31.28 107.41 31.37L107.41 31.37ZM93.01 33.67L93.01 33.67Q91.59 33.67 90.71 32.91Q89.84 32.15 89.84 30.73L89.84 30.73Q89.84 29.07 91.10 28.36Q92.37 27.65 95.04 26.77L95.04 26.77L100.19 25.12L100.37 25.81L97.20 26.96Q95.96 27.42 95.43 27.97Q94.90 28.52 94.90 29.30L94.90 29.30Q94.90 30.27 95.45 30.82Q96.00 31.37 96.83 31.37L96.83 31.37Q97.20 31.37 97.82 31.21Q98.44 31.05 99.18 30.73L99.18 30.73L101.71 29.35L101.75 30.13L97.80 32.29Q96.65 32.89 95.36 33.28Q94.07 33.67 93.01 33.67ZM121.53 33.35L121.53 33.35Q121.39 33.35 121.39 33.07Q121.39 32.80 121.53 32.80L121.53 32.80Q122.96 32.80 123.46 32.13Q123.97 31.46 123.97 29.62L123.97 29.62L123.97 23Q123.97 20.52 123.07 19.32Q122.18 18.12 120.24 18.12L120.24 18.12Q118.86 18.12 117.42 18.81Q115.97 19.50 115.09 20.70L115.09 20.70L114.86 20.15Q116.47 17.85 118.50 16.45Q120.52 15.04 122.91 15.04L122.91 15.04Q125.49 15.04 126.89 16.65Q128.29 18.26 128.29 20.79L128.29 20.79L128.29 29.62Q128.29 31.46 128.82 32.13Q129.35 32.80 130.78 32.80L130.78 32.80Q130.92 32.80 130.92 33.07Q130.92 33.35 130.78 33.35L130.78 33.35Q129.86 33.35 128.66 33.30Q127.47 33.26 126.13 33.26L126.13 33.26Q124.84 33.26 123.65 33.30Q122.45 33.35 121.53 33.35ZM109.16 33.35L109.16 33.35Q109.02 33.35 109.02 33.07Q109.02 32.80 109.16 32.80L109.16 32.80Q110.58 32.80 111.09 32.13Q111.60 31.46 111.60 29.62L111.60 29.62L111.60 20.98Q111.60 19.55 111.27 18.88Q110.95 18.22 110.17 18.22L110.17 18.22Q109.76 18.22 109.20 18.38Q108.65 18.54 107.96 18.86L107.96 18.86Q107.78 18.95 107.69 18.68Q107.59 18.40 107.69 18.35L107.69 18.35L114.08 15.23Q114.36 15.13 114.40 15.13L114.40 15.13Q114.91 15.13 115.41 16.24Q115.92 17.34 115.92 19.41L115.92 19.41L115.92 29.62Q115.92 31.46 116.45 32.13Q116.98 32.80 118.40 32.80L118.40 32.80Q118.54 32.80 118.54 33.07Q118.54 33.35 118.40 33.35L118.40 33.35Q117.48 33.35 116.29 33.30Q115.09 33.26 113.76 33.26L113.76 33.26Q112.47 33.26 111.27 33.30Q110.08 33.35 109.16 33.35ZM136.99 17.80L136.99 17.80Q136.99 18.77 137.52 19.53Q138.05 20.29 138.87 20.91Q139.70 21.53 140.67 22.13L140.67 22.13Q141.82 22.77 142.92 23.48Q144.03 24.20 144.76 25.21Q145.50 26.22 145.50 27.83L145.50 27.83Q145.50 29.30 144.74 30.71Q143.98 32.11 142.46 32.98Q140.94 33.86 138.64 33.86L138.64 33.86Q137.49 33.86 136.34 33.60Q135.19 33.35 133.86 32.61L133.86 32.61Q133.77 32.52 133.68 32.38Q133.58 32.25 133.58 32.06L133.58 32.06L133.49 27.51Q133.49 27.37 133.75 27.35Q134.00 27.32 134.04 27.42L134.04 27.42Q134.55 28.89 135.47 30.15Q136.39 31.42 137.56 32.18Q138.74 32.94 139.93 32.94L139.93 32.94Q140.85 32.94 141.45 32.36Q142.05 31.79 142.05 30.59L142.05 30.59Q142.05 29.30 141.47 28.45Q140.90 27.60 140.02 26.98Q139.15 26.36 138.23 25.85L138.23 25.85Q137.17 25.25 136.11 24.61Q135.06 23.97 134.37 22.98Q133.68 21.99 133.68 20.38L133.68 20.38Q133.68 18.45 134.64 17.30Q135.61 16.15 137.15 15.64Q138.69 15.13 140.35 15.13L140.35 15.13Q141.36 15.13 142.21 15.27Q143.06 15.41 144.16 15.82L144.16 15.82Q144.58 15.96 144.58 16.33L144.58 16.33Q144.58 17.25 144.53 18.24Q144.49 19.23 144.49 20.42L144.49 20.42Q144.49 20.56 144.21 20.56Q143.93 20.56 143.93 20.42L143.93 20.42Q143.93 19.55 143.22 18.54Q142.51 17.53 141.36 16.77Q140.21 16.01 138.87 16.01L138.87 16.01Q138.23 16.01 137.61 16.33Q136.99 16.65 136.99 17.80ZM166.43 4.09L166.43 4.09Q168.36 4.09 170.59 4.42Q172.82 4.74 174.11 5.34L174.11 5.34Q174.52 5.47 174.66 5.68Q174.80 5.89 174.85 6.39L174.85 6.39L175.40 12.79Q175.40 12.93 175.19 12.97Q174.98 13.02 174.89 12.83L174.89 12.83Q173.37 9.29 170.78 7.27Q168.18 5.24 164.63 5.24L164.63 5.24Q161.55 5.24 159.41 6.81Q157.27 8.37 156.19 11.16Q155.11 13.94 155.11 17.62L155.11 17.62Q155.11 20.79 155.89 23.58Q156.68 26.36 158.10 28.45Q159.53 30.54 161.51 31.74Q163.48 32.94 165.88 32.94L165.88 32.94Q168.82 32.94 171.14 31.00Q173.47 29.07 175.31 25.02L175.31 25.02Q175.40 24.84 175.63 24.89Q175.86 24.93 175.86 25.07L175.86 25.07L175.17 31.33Q175.08 31.88 174.96 32.04Q174.85 32.20 174.43 32.38L174.43 32.38Q172.32 33.17 170.18 33.53Q168.04 33.90 166.01 33.90L166.01 33.90Q161.55 33.90 158.38 32.55Q155.20 31.19 153.20 28.96Q151.20 26.73 150.26 24.08Q149.32 21.44 149.32 18.86L149.32 18.86Q149.32 15.46 150.72 12.74Q152.12 10.03 154.54 8.10Q156.95 6.16 160.01 5.13Q163.07 4.09 166.43 4.09ZM197.25 31.37L192.51 33.63Q192.33 33.72 192.05 33.72L192.05 33.72Q191.22 33.72 190.39 32.61Q189.57 31.51 189.57 29.44L189.57 29.44L189.57 21.62Q189.57 19.83 189.34 18.63Q189.11 17.43 188.60 16.84Q188.09 16.24 187.22 16.24L187.22 16.24Q186.53 16.24 185.98 16.58Q185.43 16.93 185.10 17.69Q184.78 18.45 184.69 19.78L184.69 19.78Q184.55 21.11 183.86 21.73Q183.17 22.36 181.98 22.36L181.98 22.36Q180.83 22.36 180.32 21.85Q179.81 21.34 179.81 20.47L179.81 20.47Q179.81 19.46 180.78 18.52Q181.75 17.57 183.20 16.81Q184.64 16.05 186.21 15.62Q187.77 15.18 189.01 15.18L189.01 15.18Q191.04 15.18 192.46 16.40Q193.89 17.62 193.89 20.24L193.89 20.24L193.89 28.38Q193.89 29.72 194.37 30.45Q194.86 31.19 195.73 31.19L195.73 31.19Q196.37 31.19 197.06 30.87L197.06 30.87Q197.25 30.77 197.36 31.03Q197.48 31.28 197.25 31.37L197.25 31.37ZM182.85 33.67L182.85 33.67Q181.42 33.67 180.55 32.91Q179.68 32.15 179.68 30.73L179.68 30.73Q179.68 29.07 180.94 28.36Q182.21 27.65 184.87 26.77L184.87 26.77L190.03 25.12L190.21 25.81L187.04 26.96Q185.79 27.42 185.27 27.97Q184.74 28.52 184.74 29.30L184.74 29.30Q184.74 30.27 185.29 30.82Q185.84 31.37 186.67 31.37L186.67 31.37Q187.04 31.37 187.66 31.21Q188.28 31.05 189.01 30.73L189.01 30.73L191.54 29.35L191.59 30.13L187.63 32.29Q186.48 32.89 185.20 33.28Q183.91 33.67 182.85 33.67ZM198.40 46L198.40 46Q198.26 46 198.26 45.72Q198.26 45.45 198.40 45.45L198.40 45.45Q200.01 45.45 200.49 44.85Q200.97 44.25 200.97 42.27L200.97 42.27L200.97 20.98Q200.97 19.55 200.65 18.88Q200.33 18.22 199.50 18.22L199.50 18.22Q199.13 18.22 198.58 18.38Q198.03 18.54 197.39 18.86L197.39 18.86Q197.20 18.95 197.06 18.68Q196.93 18.40 197.02 18.35L197.02 18.35L203.55 15.18Q203.64 15.13 203.78 15.13L203.78 15.13Q204.29 15.13 204.77 16.24Q205.25 17.34 205.25 19.41L205.25 19.41L205.25 42.27Q205.25 43.56 205.55 44.25Q205.85 44.94 206.72 45.20Q207.60 45.45 209.35 45.45L209.35 45.45Q209.48 45.45 209.48 45.72Q209.48 46 209.35 46L209.35 46Q208.06 46 206.45 45.95Q204.84 45.91 203.04 45.91L203.04 45.91Q201.76 45.91 200.54 45.95Q199.32 46 198.40 46ZM209.21 33.95L209.21 33.95Q207.41 33.95 206.15 33.67Q204.88 33.40 203.14 32.80L203.14 32.80L204.75 29.90Q205.76 31.14 206.93 31.97Q208.10 32.80 210.08 32.80L210.08 32.80Q212.24 32.80 213.49 30.91Q214.73 29.03 214.73 24.89L214.73 24.89Q214.73 21.21 213.03 19.39Q211.32 17.57 209.02 17.57L209.02 17.57Q207.32 17.57 206.08 18.45Q204.84 19.32 203.64 20.65L203.64 20.65L203.18 20.10Q205.53 17.39 207.67 16.19Q209.81 15.00 212.06 15.00L212.06 15.00Q213.99 15.00 215.65 15.99Q217.30 16.97 218.34 18.86Q219.37 20.75 219.37 23.46L219.37 23.46Q219.37 26.40 218.43 28.43Q217.49 30.45 215.97 31.67Q214.45 32.89 212.68 33.42Q210.91 33.95 209.21 33.95ZM222.59 33.35L222.59 33.35Q222.46 33.35 222.46 33.07Q222.46 32.80 222.59 32.80L222.59 32.80Q224.02 32.80 224.53 32.13Q225.03 31.46 225.03 29.62L225.03 29.62L225.03 21.39Q225.03 19.87 224.73 19.16Q224.43 18.45 223.65 18.45L223.65 18.45Q223.33 18.45 222.89 18.58Q222.46 18.72 221.95 18.95L221.95 18.95Q221.77 19.00 221.65 18.72Q221.54 18.45 221.67 18.40L221.67 18.40L228.62 15.18Q228.71 15.13 228.76 15.13L228.76 15.13Q228.99 15.13 229.22 15.36Q229.45 15.59 229.45 15.78L229.45 15.78Q229.45 16.33 229.40 17.62Q229.36 18.91 229.36 21.30L229.36 21.30L229.36 29.62Q229.36 31.46 229.89 32.13Q230.41 32.80 231.84 32.80L231.84 32.80Q231.98 32.80 231.98 33.07Q231.98 33.35 231.84 33.35L231.84 33.35Q230.92 33.35 229.72 33.30Q228.53 33.26 227.19 33.26L227.19 33.26Q225.91 33.26 224.71 33.30Q223.51 33.35 222.59 33.35ZM227.01 10.58L227.01 10.58Q225.72 10.58 224.96 9.84Q224.20 9.11 224.20 7.77L224.20 7.77Q224.20 6.58 224.96 5.87Q225.72 5.15 227.01 5.15L227.01 5.15Q228.30 5.15 228.99 5.87Q229.68 6.58 229.68 7.77L229.68 7.77Q229.68 10.58 227.01 10.58ZM241.36 33.90L241.36 33.90Q240.26 33.90 239.13 33.53Q238.00 33.17 237.25 32.25Q236.49 31.33 236.49 29.67L236.49 29.67L236.49 19.46Q236.49 18.49 236.26 17.94Q236.03 17.39 235.52 17.16Q235.01 16.93 234.14 16.93L234.14 16.93Q233.96 16.93 233.96 16.51Q233.96 16.10 234.14 16.10L234.14 16.10Q236.49 16.01 237.96 15.07Q239.43 14.12 240.17 12.28L240.17 12.28Q240.26 12.10 240.56 12.10Q240.86 12.10 240.86 12.28L240.86 12.28L240.86 28.15Q240.86 29.99 241.80 30.77Q242.74 31.56 244.12 31.56L244.12 31.56Q245.18 31.56 246.12 31.12Q247.07 30.68 247.71 30.18L247.71 30.18Q247.85 30.04 248.06 30.25Q248.26 30.45 248.08 30.59L248.08 30.59Q246.38 32.29 244.79 33.10Q243.20 33.90 241.36 33.90ZM246.65 17.94L246.65 17.94Q244.77 17.53 243.00 17.37Q241.22 17.20 239.25 17.20L239.25 17.20L239.25 16.01Q241.13 16.01 242.95 15.87Q244.77 15.73 246.84 15.55L246.84 15.55Q246.93 15.55 247.04 15.89Q247.16 16.24 247.16 16.65L247.16 16.65Q247.16 17.11 247.00 17.55Q246.84 17.99 246.65 17.94ZM267.77 31.37L263.03 33.63Q262.84 33.72 262.57 33.72L262.57 33.72Q261.74 33.72 260.91 32.61Q260.08 31.51 260.08 29.44L260.08 29.44L260.08 21.62Q260.08 19.83 259.85 18.63Q259.62 17.43 259.12 16.84Q258.61 16.24 257.74 16.24L257.74 16.24Q257.05 16.24 256.50 16.58Q255.94 16.93 255.62 17.69Q255.30 18.45 255.21 19.78L255.21 19.78Q255.07 21.11 254.38 21.73Q253.69 22.36 252.49 22.36L252.49 22.36Q251.34 22.36 250.84 21.85Q250.33 21.34 250.33 20.47L250.33 20.47Q250.33 19.46 251.30 18.52Q252.26 17.57 253.71 16.81Q255.16 16.05 256.73 15.62Q258.29 15.18 259.53 15.18L259.53 15.18Q261.56 15.18 262.98 16.40Q264.41 17.62 264.41 20.24L264.41 20.24L264.41 28.38Q264.41 29.72 264.89 30.45Q265.37 31.19 266.25 31.19L266.25 31.19Q266.89 31.19 267.58 30.87L267.58 30.87Q267.77 30.77 267.88 31.03Q268.00 31.28 267.77 31.37L267.77 31.37ZM253.37 33.67L253.37 33.67Q251.94 33.67 251.07 32.91Q250.19 32.15 250.19 30.73L250.19 30.73Q250.19 29.07 251.46 28.36Q252.72 27.65 255.39 26.77L255.39 26.77L260.54 25.12L260.73 25.81L257.55 26.96Q256.31 27.42 255.78 27.97Q255.25 28.52 255.25 29.30L255.25 29.30Q255.25 30.27 255.81 30.82Q256.36 31.37 257.19 31.37L257.19 31.37Q257.55 31.37 258.18 31.21Q258.80 31.05 259.53 30.73L259.53 30.73L262.06 29.35L262.11 30.13L258.15 32.29Q257.00 32.89 255.71 33.28Q254.43 33.67 253.37 33.67ZM269.33 33.35L269.33 33.35Q269.24 33.35 269.24 33.07Q269.24 32.80 269.33 32.80L269.33 32.80Q270.76 32.80 271.29 32.13Q271.81 31.46 271.81 29.62L271.81 29.62L271.86 6.26Q271.86 4.69 271.58 3.98Q271.31 3.27 270.53 3.27L270.53 3.27Q269.93 3.27 268.78 3.77L268.78 3.77Q268.64 3.82 268.50 3.54Q268.36 3.27 268.46 3.22L268.46 3.22L275.22 0.05Q275.31 0 275.40 0L275.40 0Q275.63 0 275.91 0.21Q276.18 0.41 276.18 0.60L276.18 0.60L276.18 29.62Q276.18 31.46 276.69 32.13Q277.20 32.80 278.62 32.80L278.62 32.80Q278.81 32.80 278.81 33.07Q278.81 33.35 278.62 33.35L278.62 33.35Q277.75 33.35 276.53 33.30Q275.31 33.26 273.98 33.26L273.98 33.26Q272.64 33.26 271.45 33.30Q270.25 33.35 269.33 33.35Z"></path></g></svg><svg id="slogan" viewBox="0 0 182.25999450683594 20.15999984741211" width="182" height="20.131241538534052" x="94" y="55.86788857270912" data-v-7b637543="" style="fill: rgb(7, 66, 91);"><rect x="0" y="0" width="100%" height="100%" fill="none" data-v-7b637543=""></rect><g data-v-7b637543=""><path xmlns="http://www.w3.org/2000/svg" d="M9.84 14.52L9.84 14.52Q9.54 14.52 8.87 13.74Q8.20 12.96 7.26 11.49Q6.32 10.02 5.14 7.98L5.14 7.98L6.98 7.40Q8.58 9.92 9.71 11.43Q10.84 12.94 11.72 13.61Q12.60 14.28 13.40 14.28L13.40 14.28Q13.44 14.28 13.44 14.40Q13.44 14.52 13.40 14.52L13.40 14.52Q12 14.52 11.12 14.52Q10.24 14.52 9.84 14.52ZM5.28 1.96L5.28 1.96Q7.12 1.96 8.13 2.63Q9.14 3.30 9.14 4.50L9.14 4.50Q9.14 5.26 8.77 5.94Q8.40 6.62 7.79 7.15Q7.18 7.68 6.41 7.98Q5.64 8.28 4.84 8.28L4.84 8.28Q4.56 8.28 4.27 8.28Q3.98 8.28 3.74 8.26L3.74 8.26L3.74 12.90Q3.74 13.48 3.84 13.78Q3.94 14.08 4.24 14.18Q4.54 14.28 5.16 14.28L5.16 14.28Q5.20 14.28 5.20 14.40Q5.20 14.52 5.16 14.52L5.16 14.52Q4.64 14.52 4 14.50Q3.36 14.48 2.60 14.48L2.60 14.48Q1.88 14.48 1.23 14.50Q0.58 14.52 0.06 14.52L0.06 14.52Q0 14.52 0 14.40Q0 14.28 0.06 14.28L0.06 14.28Q0.68 14.28 0.98 14.18Q1.28 14.08 1.39 13.78Q1.50 13.48 1.50 12.90L1.50 12.90L1.50 3.64Q1.50 3.06 1.40 2.77Q1.30 2.48 1 2.37Q0.70 2.26 0.08 2.26L0.08 2.26Q0.04 2.26 0.04 2.14Q0.04 2.02 0.08 2.02L0.08 2.02Q0.60 2.02 1.24 2.05Q1.88 2.08 2.60 2.08L2.60 2.08Q3.20 2.08 3.91 2.02Q4.62 1.96 5.28 1.96ZM6.84 5.26L6.84 5.26Q6.84 4.08 6.60 3.46Q6.36 2.84 5.94 2.61Q5.52 2.38 4.98 2.38L4.98 2.38Q4.52 2.38 4.25 2.51Q3.98 2.64 3.86 2.93Q3.74 3.22 3.74 3.68L3.74 3.68L3.74 7.68Q4.02 7.72 4.34 7.74Q4.66 7.76 4.90 7.76L4.90 7.76Q5.96 7.76 6.40 7.24Q6.84 6.72 6.84 5.26ZM17.54 14.76L17.54 14.76Q16.24 14.76 15.33 14.22Q14.42 13.68 13.95 12.79Q13.48 11.90 13.48 10.90L13.48 10.90Q13.48 9.72 14.08 8.75Q14.68 7.78 15.71 7.20Q16.74 6.62 18.04 6.62L18.04 6.62Q19.28 6.62 19.94 7.15Q20.60 7.68 20.60 8.60L20.60 8.60Q20.60 8.82 20.56 9Q20.52 9.18 20.38 9.18L20.38 9.18L18.46 9.18Q18.50 8.24 18.24 7.63Q17.98 7.02 17.30 7.02L17.30 7.02Q16.50 7.02 16 7.85Q15.50 8.68 15.50 10.06L15.50 10.06Q15.50 11.18 15.86 12.02Q16.22 12.86 16.90 13.32Q17.58 13.78 18.54 13.78L18.54 13.78Q19.02 13.78 19.57 13.64Q20.12 13.50 20.56 13.22L20.56 13.22Q20.60 13.18 20.67 13.26Q20.74 13.34 20.70 13.40L20.70 13.40Q19.96 14.14 19.19 14.45Q18.42 14.76 17.54 14.76ZM19.16 9.18L14.80 9.22L14.78 8.84L19.16 8.74L19.16 9.18ZM24.86 14.78L24.86 14.78Q24 14.78 23.29 14.32Q22.58 13.86 22.15 12.99Q21.72 12.12 21.72 10.88L21.72 10.88Q21.72 9.66 22.16 8.83Q22.60 8.00 23.29 7.50Q23.98 7.00 24.78 6.77Q25.58 6.54 26.30 6.54L26.30 6.54Q27.02 6.54 27.64 6.72Q28.26 6.90 28.76 7.16L28.76 7.16L28.30 8.78Q27.88 7.88 27.34 7.47Q26.80 7.06 26 7.06L26 7.06Q24.98 7.06 24.38 7.77Q23.78 8.48 23.78 10.24L23.78 10.24Q23.78 11.38 24.06 12.18Q24.34 12.98 24.84 13.40Q25.34 13.82 25.96 13.82L25.96 13.82Q26.76 13.82 27.36 13.38Q27.96 12.94 28.52 12.32L28.52 12.32L28.72 12.50Q28.30 12.98 27.73 13.51Q27.16 14.04 26.45 14.41Q25.74 14.78 24.86 14.78ZM29.74 0.28L29.74 0.28L29.74 12.20Q29.74 12.88 29.87 13.16Q30 13.44 30.30 13.44L30.30 13.44Q30.44 13.44 30.65 13.38Q30.86 13.32 31.12 13.22L31.12 13.22Q31.18 13.18 31.24 13.29Q31.30 13.40 31.26 13.44L31.26 13.44L28.50 14.78Q28.44 14.80 28.40 14.80L28.40 14.80Q28.20 14.80 28.03 14.30Q27.86 13.80 27.86 12.88L27.86 12.88L27.86 2.74Q27.86 2.06 27.74 1.75Q27.62 1.44 27.28 1.44L27.28 1.44Q27.14 1.44 26.95 1.50Q26.76 1.56 26.54 1.66L26.54 1.66Q26.46 1.68 26.40 1.56Q26.34 1.44 26.38 1.42L26.38 1.42L29.32 0.04Q29.36 0.02 29.40 0.02L29.40 0.02Q29.50 0.02 29.62 0.11Q29.74 0.20 29.74 0.28ZM35.98 14.76L35.98 14.76Q34.68 14.76 33.77 14.22Q32.86 13.68 32.39 12.79Q31.92 11.90 31.92 10.90L31.92 10.90Q31.92 9.72 32.52 8.75Q33.12 7.78 34.15 7.20Q35.18 6.62 36.48 6.62L36.48 6.62Q37.72 6.62 38.38 7.15Q39.04 7.68 39.04 8.60L39.04 8.60Q39.04 8.82 39 9Q38.96 9.18 38.82 9.18L38.82 9.18L36.90 9.18Q36.94 8.24 36.68 7.63Q36.42 7.02 35.74 7.02L35.74 7.02Q34.94 7.02 34.44 7.85Q33.94 8.68 33.94 10.06L33.94 10.06Q33.94 11.18 34.30 12.02Q34.66 12.86 35.34 13.32Q36.02 13.78 36.98 13.78L36.98 13.78Q37.46 13.78 38.01 13.64Q38.56 13.50 39 13.22L39 13.22Q39.04 13.18 39.11 13.26Q39.18 13.34 39.14 13.40L39.14 13.40Q38.40 14.14 37.63 14.45Q36.86 14.76 35.98 14.76ZM37.60 9.18L33.24 9.22L33.22 8.84L37.60 8.74L37.60 9.18ZM40.18 14.52L40.18 14.52Q40.10 14.52 40.10 14.40Q40.10 14.28 40.18 14.28L40.18 14.28Q40.94 14.28 41.16 14.02Q41.38 13.76 41.38 12.90L41.38 12.90L41.38 8.40Q41.38 7.96 41.26 7.75Q41.14 7.54 40.86 7.47Q40.58 7.40 40.10 7.40L40.10 7.40Q40.04 7.40 40.04 7.22Q40.04 7.04 40.10 7.04L40.10 7.04Q40.80 7.04 41.06 6.85Q41.32 6.66 41.34 6.16L41.34 6.16Q41.44 2.84 42.60 1.42Q43.76 0 46.02 0L46.02 0Q47.14 0 47.76 0.30Q48.38 0.60 48.38 1.18L48.38 1.18Q48.38 1.66 48.06 1.91Q47.74 2.16 47.36 2.16L47.36 2.16Q46.82 2.16 46.61 1.89Q46.40 1.62 46.26 1.30L46.26 1.30Q46.12 0.98 45.93 0.72Q45.74 0.46 45.24 0.46L45.24 0.46Q44.38 0.46 43.82 1.68Q43.26 2.90 43.26 5.74L43.26 5.74L43.26 12.90Q43.26 13.48 43.38 13.78Q43.50 14.08 43.88 14.18Q44.26 14.28 45.04 14.28L45.04 14.28Q45.12 14.28 45.12 14.40Q45.12 14.52 45.04 14.52L45.04 14.52Q44.34 14.52 43.67 14.50Q43 14.48 42.30 14.48L42.30 14.48Q41.72 14.48 41.17 14.50Q40.62 14.52 40.18 14.52ZM45.40 7.82L45.40 7.82Q44.62 7.64 43.91 7.57Q43.20 7.50 42.40 7.50L42.40 7.50L42.40 6.98Q43.16 6.98 43.90 6.92Q44.64 6.86 45.46 6.78L45.46 6.78Q45.52 6.78 45.56 6.93Q45.60 7.08 45.60 7.26L45.60 7.26Q45.60 7.46 45.53 7.65Q45.46 7.84 45.40 7.82ZM46.52 14.52L46.52 14.52Q46.46 14.52 46.46 14.40Q46.46 14.28 46.52 14.28L46.52 14.28Q47.14 14.28 47.36 13.99Q47.58 13.70 47.58 12.90L47.58 12.90L47.58 9.32Q47.58 8.66 47.45 8.35Q47.32 8.04 46.98 8.04L46.98 8.04Q46.84 8.04 46.65 8.10Q46.46 8.16 46.24 8.26L46.24 8.26Q46.16 8.28 46.11 8.16Q46.06 8.04 46.12 8.02L46.12 8.02L49.14 6.62Q49.18 6.60 49.20 6.60L49.20 6.60Q49.30 6.60 49.40 6.70Q49.50 6.80 49.50 6.88L49.50 6.88Q49.50 7.12 49.48 7.68Q49.46 8.24 49.46 9.28L49.46 9.28L49.46 12.90Q49.46 13.70 49.69 13.99Q49.92 14.28 50.54 14.28L50.54 14.28Q50.60 14.28 50.60 14.40Q50.60 14.52 50.54 14.52L50.54 14.52Q50.14 14.52 49.62 14.50Q49.10 14.48 48.52 14.48L48.52 14.48Q47.96 14.48 47.44 14.50Q46.92 14.52 46.52 14.52ZM48.44 4.62L48.44 4.62Q47.88 4.62 47.55 4.30Q47.22 3.98 47.22 3.40L47.22 3.40Q47.22 2.88 47.55 2.57Q47.88 2.26 48.44 2.26L48.44 2.26Q49 2.26 49.30 2.57Q49.60 2.88 49.60 3.40L49.60 3.40Q49.60 4.62 48.44 4.62ZM57.16 14.52L57.16 14.52Q57.10 14.52 57.10 14.40Q57.10 14.28 57.16 14.28L57.16 14.28Q57.78 14.28 58 13.99Q58.22 13.70 58.22 12.90L58.22 12.90L58.22 10.02Q58.22 8.94 57.83 8.42Q57.44 7.90 56.60 7.90L56.60 7.90Q56 7.90 55.37 8.20Q54.74 8.50 54.36 9.02L54.36 9.02L54.26 8.78Q54.96 7.78 55.84 7.17Q56.72 6.56 57.76 6.56L57.76 6.56Q58.88 6.56 59.49 7.26Q60.10 7.96 60.10 9.06L60.10 9.06L60.10 12.90Q60.10 13.70 60.33 13.99Q60.56 14.28 61.18 14.28L61.18 14.28Q61.24 14.28 61.24 14.40Q61.24 14.52 61.18 14.52L61.18 14.52Q60.78 14.52 60.26 14.50Q59.74 14.48 59.16 14.48L59.16 14.48Q58.60 14.48 58.08 14.50Q57.56 14.52 57.16 14.52ZM51.78 14.52L51.78 14.52Q51.72 14.52 51.72 14.40Q51.72 14.28 51.78 14.28L51.78 14.28Q52.40 14.28 52.62 13.99Q52.84 13.70 52.84 12.90L52.84 12.90L52.84 9.14Q52.84 8.52 52.70 8.23Q52.56 7.94 52.22 7.94L52.22 7.94Q52.04 7.94 51.80 8.01Q51.56 8.08 51.26 8.22L51.26 8.22Q51.18 8.26 51.14 8.14Q51.10 8.02 51.14 8.00L51.14 8.00L53.92 6.64Q54.04 6.60 54.06 6.60L54.06 6.60Q54.28 6.60 54.50 7.08Q54.72 7.56 54.72 8.46L54.72 8.46L54.72 12.90Q54.72 13.70 54.95 13.99Q55.18 14.28 55.80 14.28L55.80 14.28Q55.86 14.28 55.86 14.40Q55.86 14.52 55.80 14.52L55.80 14.52Q55.40 14.52 54.88 14.50Q54.36 14.48 53.78 14.48L53.78 14.48Q53.22 14.48 52.70 14.50Q52.18 14.52 51.78 14.52ZM62.30 14.52L62.30 14.52Q62.24 14.52 62.24 14.40Q62.24 14.28 62.30 14.28L62.30 14.28Q62.92 14.28 63.14 13.99Q63.36 13.70 63.36 12.90L63.36 12.90L63.36 9.32Q63.36 8.66 63.23 8.35Q63.10 8.04 62.76 8.04L62.76 8.04Q62.62 8.04 62.43 8.10Q62.24 8.16 62.02 8.26L62.02 8.26Q61.94 8.28 61.89 8.16Q61.84 8.04 61.90 8.02L61.90 8.02L64.92 6.62Q64.96 6.60 64.98 6.60L64.98 6.60Q65.08 6.60 65.18 6.70Q65.28 6.80 65.28 6.88L65.28 6.88Q65.28 7.12 65.26 7.68Q65.24 8.24 65.24 9.28L65.24 9.28L65.24 12.90Q65.24 13.70 65.47 13.99Q65.70 14.28 66.32 14.28L66.32 14.28Q66.38 14.28 66.38 14.40Q66.38 14.52 66.32 14.52L66.32 14.52Q65.92 14.52 65.40 14.50Q64.88 14.48 64.30 14.48L64.30 14.48Q63.74 14.48 63.22 14.50Q62.70 14.52 62.30 14.52ZM64.22 4.62L64.22 4.62Q63.66 4.62 63.33 4.30Q63.00 3.98 63.00 3.40L63.00 3.40Q63.00 2.88 63.33 2.57Q63.66 2.26 64.22 2.26L64.22 2.26Q64.78 2.26 65.08 2.57Q65.38 2.88 65.38 3.40L65.38 3.40Q65.38 4.62 64.22 4.62ZM72.94 14.52L72.94 14.52Q72.88 14.52 72.88 14.40Q72.88 14.28 72.94 14.28L72.94 14.28Q73.56 14.28 73.78 13.99Q74 13.70 74 12.90L74 12.90L74 10.02Q74 8.94 73.61 8.42Q73.22 7.90 72.38 7.90L72.38 7.90Q71.78 7.90 71.15 8.20Q70.52 8.50 70.14 9.02L70.14 9.02L70.04 8.78Q70.74 7.78 71.62 7.17Q72.50 6.56 73.54 6.56L73.54 6.56Q74.66 6.56 75.27 7.26Q75.88 7.96 75.88 9.06L75.88 9.06L75.88 12.90Q75.88 13.70 76.11 13.99Q76.34 14.28 76.96 14.28L76.96 14.28Q77.02 14.28 77.02 14.40Q77.02 14.52 76.96 14.52L76.96 14.52Q76.56 14.52 76.04 14.50Q75.52 14.48 74.94 14.48L74.94 14.48Q74.38 14.48 73.86 14.50Q73.34 14.52 72.94 14.52ZM67.56 14.52L67.56 14.52Q67.50 14.52 67.50 14.40Q67.50 14.28 67.56 14.28L67.56 14.28Q68.18 14.28 68.40 13.99Q68.62 13.70 68.62 12.90L68.62 12.90L68.62 9.14Q68.62 8.52 68.48 8.23Q68.34 7.94 68 7.94L68 7.94Q67.82 7.94 67.58 8.01Q67.34 8.08 67.04 8.22L67.04 8.22Q66.96 8.26 66.92 8.14Q66.88 8.02 66.92 8.00L66.92 8.00L69.70 6.64Q69.82 6.60 69.84 6.60L69.84 6.60Q70.06 6.60 70.28 7.08Q70.50 7.56 70.50 8.46L70.50 8.46L70.50 12.90Q70.50 13.70 70.73 13.99Q70.96 14.28 71.58 14.28L71.58 14.28Q71.64 14.28 71.64 14.40Q71.64 14.52 71.58 14.52L71.58 14.52Q71.18 14.52 70.66 14.50Q70.14 14.48 69.56 14.48L69.56 14.48Q69 14.48 68.48 14.50Q67.96 14.52 67.56 14.52ZM80.94 20.16L80.94 20.16Q79.48 20.16 78.53 19.53Q77.58 18.90 77.58 17.86L77.58 17.86Q77.58 17.44 77.77 16.95Q77.96 16.46 78.51 15.86Q79.06 15.26 80.14 14.56L80.14 14.56L80.34 14.78Q80.14 14.98 79.96 15.25Q79.78 15.52 79.67 15.91Q79.56 16.30 79.56 16.90L79.56 16.90Q79.56 18.20 80.26 18.86Q80.96 19.52 82 19.52L82 19.52Q82.70 19.52 83.22 19.25Q83.74 18.98 84.04 18.47Q84.34 17.96 84.34 17.28L84.34 17.28Q84.34 16.68 84.07 16.31Q83.80 15.94 83.35 15.73Q82.90 15.52 82.34 15.40Q81.78 15.28 81.20 15.20L81.20 15.20Q80.50 15.08 79.85 14.93Q79.20 14.78 78.80 14.44Q78.40 14.10 78.40 13.44L78.40 13.44Q78.40 12.92 78.87 12.30Q79.34 11.68 80.46 11.18L80.46 11.18L80.64 11.30Q80.26 11.50 80.09 11.74Q79.92 11.98 79.92 12.32L79.92 12.32Q79.92 12.78 80.27 13.03Q80.62 13.28 81.20 13.40Q81.78 13.52 82.42 13.64L82.42 13.64Q83.06 13.74 83.69 13.88Q84.32 14.02 84.85 14.26Q85.38 14.50 85.70 14.94Q86.02 15.38 86.02 16.08L86.02 16.08Q86.02 16.90 85.62 17.63Q85.22 18.36 84.52 18.93Q83.82 19.50 82.90 19.83Q81.98 20.16 80.94 20.16ZM81.34 11.62L81.34 11.62Q80.32 11.62 79.61 11.26Q78.90 10.90 78.53 10.33Q78.16 9.76 78.16 9.16L78.16 9.16Q78.16 8.32 78.71 7.76Q79.26 7.20 80.06 6.93Q80.86 6.66 81.60 6.66L81.60 6.66Q82.54 6.66 83.26 6.99Q83.98 7.32 84.39 7.87Q84.80 8.42 84.80 9.12L84.80 9.12Q84.80 9.90 84.27 10.46Q83.74 11.02 82.95 11.32Q82.16 11.62 81.34 11.62ZM81.88 11.26L81.88 11.26Q82.22 11.26 82.53 10.89Q82.84 10.52 82.84 9.60L82.84 9.60Q82.84 8.50 82.27 7.77Q81.70 7.04 80.94 7.04L80.94 7.04Q80.50 7.04 80.30 7.45Q80.10 7.86 80.10 8.62L80.10 8.62Q80.10 9.28 80.32 9.88Q80.54 10.48 80.94 10.87Q81.34 11.26 81.88 11.26ZM83.48 7.88L83.36 8.26L83.40 7.62Q84.04 7.12 84.65 6.86Q85.26 6.60 86 6.60L86 6.60Q86.10 6.60 86.13 6.76Q86.16 6.92 86.16 7.16L86.16 7.16Q86.16 7.44 86.08 7.78Q86 8.12 85.94 8.06L85.94 8.06Q85.56 7.90 85.18 7.81Q84.80 7.72 84.44 7.72L84.44 7.72Q84.22 7.72 83.98 7.75Q83.74 7.78 83.48 7.88L83.48 7.88ZM91.52 20.02L91.52 20.02Q91.46 20.02 91.46 19.90Q91.46 19.78 91.52 19.78L91.52 19.78Q92.22 19.78 92.43 19.52Q92.64 19.26 92.64 18.40L92.64 18.40L92.64 9.14Q92.64 8.52 92.50 8.23Q92.36 7.94 92 7.94L92 7.94Q91.84 7.94 91.60 8.01Q91.36 8.08 91.08 8.22L91.08 8.22Q91 8.26 90.94 8.14Q90.88 8.02 90.92 8.00L90.92 8.00L93.76 6.62Q93.80 6.60 93.86 6.60L93.86 6.60Q94.08 6.60 94.29 7.08Q94.50 7.56 94.50 8.46L94.50 8.46L94.50 18.40Q94.50 18.96 94.63 19.26Q94.76 19.56 95.14 19.67Q95.52 19.78 96.28 19.78L96.28 19.78Q96.34 19.78 96.34 19.90Q96.34 20.02 96.28 20.02L96.28 20.02Q95.72 20.02 95.02 20Q94.32 19.98 93.54 19.98L93.54 19.98Q92.98 19.98 92.45 20Q91.92 20.02 91.52 20.02ZM96.22 14.78L96.22 14.78Q95.44 14.78 94.89 14.66Q94.34 14.54 93.58 14.28L93.58 14.28L94.28 13.02Q94.72 13.56 95.23 13.92Q95.74 14.28 96.60 14.28L96.60 14.28Q97.54 14.28 98.08 13.46Q98.62 12.64 98.62 10.84L98.62 10.84Q98.62 9.24 97.88 8.45Q97.14 7.66 96.14 7.66L96.14 7.66Q95.40 7.66 94.86 8.04Q94.32 8.42 93.80 9L93.80 9L93.60 8.76Q94.62 7.58 95.55 7.06Q96.48 6.54 97.46 6.54L97.46 6.54Q98.30 6.54 99.02 6.97Q99.74 7.40 100.19 8.22Q100.64 9.04 100.64 10.22L100.64 10.22Q100.64 11.50 100.23 12.38Q99.82 13.26 99.16 13.79Q98.50 14.32 97.73 14.55Q96.96 14.78 96.22 14.78ZM106 14.78L106 14.78Q104.74 14.78 103.82 14.20Q102.90 13.62 102.40 12.65Q101.90 11.68 101.90 10.56L101.90 10.56Q101.90 9.52 102.30 8.76Q102.70 8.00 103.36 7.51Q104.02 7.02 104.80 6.78Q105.58 6.54 106.34 6.54L106.34 6.54Q107.62 6.54 108.53 7.14Q109.44 7.74 109.92 8.68Q110.40 9.62 110.40 10.68L110.40 10.68Q110.40 11.90 109.79 12.83Q109.18 13.76 108.18 14.27Q107.18 14.78 106 14.78ZM106.60 14.36L106.60 14.36Q107.40 14.36 107.80 13.58Q108.20 12.80 108.20 11.38L108.20 11.38Q108.20 9.92 107.83 8.94Q107.46 7.96 106.88 7.46Q106.30 6.96 105.66 6.96L105.66 6.96Q104.88 6.96 104.47 7.66Q104.06 8.36 104.06 9.82L104.06 9.82Q104.06 11.18 104.40 12.21Q104.74 13.24 105.32 13.80Q105.90 14.36 106.60 14.36ZM113.40 7.76L113.40 7.76Q113.40 8.18 113.63 8.51Q113.86 8.84 114.22 9.11Q114.58 9.38 115 9.64L115 9.64Q115.50 9.92 115.98 10.23Q116.46 10.54 116.78 10.98Q117.10 11.42 117.10 12.12L117.10 12.12Q117.10 12.76 116.77 13.37Q116.44 13.98 115.78 14.36Q115.12 14.74 114.12 14.74L114.12 14.74Q113.62 14.74 113.12 14.63Q112.62 14.52 112.04 14.20L112.04 14.20Q112 14.16 111.96 14.10Q111.92 14.04 111.92 13.96L111.92 13.96L111.88 11.98Q111.88 11.92 111.99 11.91Q112.10 11.90 112.12 11.94L112.12 11.94Q112.34 12.58 112.74 13.13Q113.14 13.68 113.65 14.01Q114.16 14.34 114.68 14.34L114.68 14.34Q115.08 14.34 115.34 14.09Q115.60 13.84 115.60 13.32L115.60 13.32Q115.60 12.76 115.35 12.39Q115.10 12.02 114.72 11.75Q114.34 11.48 113.94 11.26L113.94 11.26Q113.48 11 113.02 10.72Q112.56 10.44 112.26 10.01Q111.96 9.58 111.96 8.88L111.96 8.88Q111.96 8.04 112.38 7.54Q112.80 7.04 113.47 6.82Q114.14 6.60 114.86 6.60L114.86 6.60Q115.30 6.60 115.67 6.66Q116.04 6.72 116.52 6.90L116.52 6.90Q116.70 6.96 116.70 7.12L116.70 7.12Q116.70 7.52 116.68 7.95Q116.66 8.38 116.66 8.90L116.66 8.90Q116.66 8.96 116.54 8.96Q116.42 8.96 116.42 8.90L116.42 8.90Q116.42 8.52 116.11 8.08Q115.80 7.64 115.30 7.31Q114.80 6.98 114.22 6.98L114.22 6.98Q113.94 6.98 113.67 7.12Q113.40 7.26 113.40 7.76ZM120.02 7.76L120.02 7.76Q120.02 8.18 120.25 8.51Q120.48 8.84 120.84 9.11Q121.20 9.38 121.62 9.64L121.62 9.64Q122.12 9.92 122.60 10.23Q123.08 10.54 123.40 10.98Q123.72 11.42 123.72 12.12L123.72 12.12Q123.72 12.76 123.39 13.37Q123.06 13.98 122.40 14.36Q121.74 14.74 120.74 14.74L120.74 14.74Q120.24 14.74 119.74 14.63Q119.24 14.52 118.66 14.20L118.66 14.20Q118.62 14.16 118.58 14.10Q118.54 14.04 118.54 13.96L118.54 13.96L118.50 11.98Q118.50 11.92 118.61 11.91Q118.72 11.90 118.74 11.94L118.74 11.94Q118.96 12.58 119.36 13.13Q119.76 13.68 120.27 14.01Q120.78 14.34 121.30 14.34L121.30 14.34Q121.70 14.34 121.96 14.09Q122.22 13.84 122.22 13.32L122.22 13.32Q122.22 12.76 121.97 12.39Q121.72 12.02 121.34 11.75Q120.96 11.48 120.56 11.26L120.56 11.26Q120.10 11 119.64 10.72Q119.18 10.44 118.88 10.01Q118.58 9.58 118.58 8.88L118.58 8.88Q118.58 8.04 119 7.54Q119.42 7.04 120.09 6.82Q120.76 6.60 121.48 6.60L121.48 6.60Q121.92 6.60 122.29 6.66Q122.66 6.72 123.14 6.90L123.14 6.90Q123.32 6.96 123.32 7.12L123.32 7.12Q123.32 7.52 123.30 7.95Q123.28 8.38 123.28 8.90L123.28 8.90Q123.28 8.96 123.16 8.96Q123.04 8.96 123.04 8.90L123.04 8.90Q123.04 8.52 122.73 8.08Q122.42 7.64 121.92 7.31Q121.42 6.98 120.84 6.98L120.84 6.98Q120.56 6.98 120.29 7.12Q120.02 7.26 120.02 7.76ZM125.18 14.52L125.18 14.52Q125.12 14.52 125.12 14.40Q125.12 14.28 125.18 14.28L125.18 14.28Q125.80 14.28 126.02 13.99Q126.24 13.70 126.24 12.90L126.24 12.90L126.24 9.32Q126.24 8.66 126.11 8.35Q125.98 8.04 125.64 8.04L125.64 8.04Q125.50 8.04 125.31 8.10Q125.12 8.16 124.90 8.26L124.90 8.26Q124.82 8.28 124.77 8.16Q124.72 8.04 124.78 8.02L124.78 8.02L127.80 6.62Q127.84 6.60 127.86 6.60L127.86 6.60Q127.96 6.60 128.06 6.70Q128.16 6.80 128.16 6.88L128.16 6.88Q128.16 7.12 128.14 7.68Q128.12 8.24 128.12 9.28L128.12 9.28L128.12 12.90Q128.12 13.70 128.35 13.99Q128.58 14.28 129.20 14.28L129.20 14.28Q129.26 14.28 129.26 14.40Q129.26 14.52 129.20 14.52L129.20 14.52Q128.80 14.52 128.28 14.50Q127.76 14.48 127.18 14.48L127.18 14.48Q126.62 14.48 126.10 14.50Q125.58 14.52 125.18 14.52ZM127.10 4.62L127.10 4.62Q126.54 4.62 126.21 4.30Q125.88 3.98 125.88 3.40L125.88 3.40Q125.88 2.88 126.21 2.57Q126.54 2.26 127.10 2.26L127.10 2.26Q127.66 2.26 127.96 2.57Q128.26 2.88 128.26 3.40L128.26 3.40Q128.26 4.62 127.10 4.62ZM135.02 14.78L135.02 14.78Q134.16 14.78 133.34 14.47Q132.52 14.16 131.86 13.56L131.86 13.56L133.14 11.22Q133.14 12.40 133.54 13.10Q133.94 13.80 134.50 14.09Q135.06 14.38 135.50 14.38L135.50 14.38Q136.38 14.38 136.83 13.50Q137.28 12.62 137.28 11.04L137.28 11.04Q137.28 9.24 136.68 8.42Q136.08 7.60 135.08 7.60L135.08 7.60Q134.46 7.60 133.90 7.86Q133.34 8.12 132.88 8.48L132.88 8.48L132.70 8.32Q133.12 7.90 133.59 7.49Q134.06 7.08 134.66 6.81Q135.26 6.54 136.02 6.54L136.02 6.54Q136.90 6.54 137.65 6.95Q138.40 7.36 138.87 8.18Q139.34 9 139.34 10.26L139.34 10.26Q139.34 11.76 138.71 12.77Q138.08 13.78 137.10 14.28Q136.12 14.78 135.02 14.78ZM133.14 13.40L130.38 14.66Q130.30 14.68 130.26 14.59Q130.22 14.50 130.30 14.48L130.30 14.48Q130.76 14.20 131.02 13.73Q131.28 13.26 131.28 12.46L131.28 12.46L131.28 2.74Q131.28 2.06 131.15 1.75Q131.02 1.44 130.68 1.44L130.68 1.44Q130.42 1.44 129.94 1.66L129.94 1.66Q129.86 1.68 129.81 1.56Q129.76 1.44 129.80 1.42L129.80 1.42L132.72 0.04Q132.78 0.02 132.82 0.02L132.82 0.02Q132.92 0.02 133.03 0.11Q133.14 0.20 133.14 0.28L133.14 0.28L133.14 13.40ZM140.76 14.52L140.76 14.52Q140.70 14.52 140.70 14.40Q140.70 14.28 140.76 14.28L140.76 14.28Q141.38 14.28 141.60 13.99Q141.82 13.70 141.82 12.90L141.82 12.90L141.82 9.32Q141.82 8.66 141.69 8.35Q141.56 8.04 141.22 8.04L141.22 8.04Q141.08 8.04 140.89 8.10Q140.70 8.16 140.48 8.26L140.48 8.26Q140.40 8.28 140.35 8.16Q140.30 8.04 140.36 8.02L140.36 8.02L143.38 6.62Q143.42 6.60 143.44 6.60L143.44 6.60Q143.54 6.60 143.64 6.70Q143.74 6.80 143.74 6.88L143.74 6.88Q143.74 7.12 143.72 7.68Q143.70 8.24 143.70 9.28L143.70 9.28L143.70 12.90Q143.70 13.70 143.93 13.99Q144.16 14.28 144.78 14.28L144.78 14.28Q144.84 14.28 144.84 14.40Q144.84 14.52 144.78 14.52L144.78 14.52Q144.38 14.52 143.86 14.50Q143.34 14.48 142.76 14.48L142.76 14.48Q142.20 14.48 141.68 14.50Q141.16 14.52 140.76 14.52ZM142.68 4.62L142.68 4.62Q142.12 4.62 141.79 4.30Q141.46 3.98 141.46 3.40L141.46 3.40Q141.46 2.88 141.79 2.57Q142.12 2.26 142.68 2.26L142.68 2.26Q143.24 2.26 143.54 2.57Q143.84 2.88 143.84 3.40L143.84 3.40Q143.84 4.62 142.68 4.62ZM145.94 14.52L145.94 14.52Q145.90 14.52 145.90 14.40Q145.90 14.28 145.94 14.28L145.94 14.28Q146.56 14.28 146.79 13.99Q147.02 13.70 147.02 12.90L147.02 12.90L147.04 2.74Q147.04 2.06 146.92 1.75Q146.80 1.44 146.46 1.44L146.46 1.44Q146.20 1.44 145.70 1.66L145.70 1.66Q145.64 1.68 145.58 1.56Q145.52 1.44 145.56 1.42L145.56 1.42L148.50 0.04Q148.54 0.02 148.58 0.02L148.58 0.02Q148.68 0.02 148.80 0.11Q148.92 0.20 148.92 0.28L148.92 0.28L148.92 12.90Q148.92 13.70 149.14 13.99Q149.36 14.28 149.98 14.28L149.98 14.28Q150.06 14.28 150.06 14.40Q150.06 14.52 149.98 14.52L149.98 14.52Q149.60 14.52 149.07 14.50Q148.54 14.48 147.96 14.48L147.96 14.48Q147.38 14.48 146.86 14.50Q146.34 14.52 145.94 14.52ZM151.38 14.52L151.38 14.52Q151.32 14.52 151.32 14.40Q151.32 14.28 151.38 14.28L151.38 14.28Q152 14.28 152.22 13.99Q152.44 13.70 152.44 12.90L152.44 12.90L152.44 9.32Q152.44 8.66 152.31 8.35Q152.18 8.04 151.84 8.04L151.84 8.04Q151.70 8.04 151.51 8.10Q151.32 8.16 151.10 8.26L151.10 8.26Q151.02 8.28 150.97 8.16Q150.92 8.04 150.98 8.02L150.98 8.02L154 6.62Q154.04 6.60 154.06 6.60L154.06 6.60Q154.16 6.60 154.26 6.70Q154.36 6.80 154.36 6.88L154.36 6.88Q154.36 7.12 154.34 7.68Q154.32 8.24 154.32 9.28L154.32 9.28L154.32 12.90Q154.32 13.70 154.55 13.99Q154.78 14.28 155.40 14.28L155.40 14.28Q155.46 14.28 155.46 14.40Q155.46 14.52 155.40 14.52L155.40 14.52Q155 14.52 154.48 14.50Q153.96 14.48 153.38 14.48L153.38 14.48Q152.82 14.48 152.30 14.50Q151.78 14.52 151.38 14.52ZM153.30 4.62L153.30 4.62Q152.74 4.62 152.41 4.30Q152.08 3.98 152.08 3.40L152.08 3.40Q152.08 2.88 152.41 2.57Q152.74 2.26 153.30 2.26L153.30 2.26Q153.86 2.26 154.16 2.57Q154.46 2.88 154.46 3.40L154.46 3.40Q154.46 4.62 153.30 4.62ZM159.54 14.76L159.54 14.76Q159.06 14.76 158.57 14.60Q158.08 14.44 157.75 14.04Q157.42 13.64 157.42 12.92L157.42 12.92L157.42 8.48Q157.42 8.06 157.32 7.82Q157.22 7.58 157.00 7.48Q156.78 7.38 156.40 7.38L156.40 7.38Q156.32 7.38 156.32 7.20Q156.32 7.02 156.40 7.02L156.40 7.02Q157.42 6.98 158.06 6.57Q158.70 6.16 159.02 5.36L159.02 5.36Q159.06 5.28 159.19 5.28Q159.32 5.28 159.32 5.36L159.32 5.36L159.32 12.26Q159.32 13.06 159.73 13.40Q160.14 13.74 160.74 13.74L160.74 13.74Q161.20 13.74 161.61 13.55Q162.02 13.36 162.30 13.14L162.30 13.14Q162.36 13.08 162.45 13.17Q162.54 13.26 162.46 13.32L162.46 13.32Q161.72 14.06 161.03 14.41Q160.34 14.76 159.54 14.76ZM161.84 7.82L161.84 7.82Q161.02 7.64 160.25 7.57Q159.48 7.50 158.62 7.50L158.62 7.50L158.62 6.98Q159.44 6.98 160.23 6.92Q161.02 6.86 161.92 6.78L161.92 6.78Q161.96 6.78 162.01 6.93Q162.06 7.08 162.06 7.26L162.06 7.26Q162.06 7.46 161.99 7.65Q161.92 7.84 161.84 7.82ZM163.36 14.52L163.36 14.52Q163.30 14.52 163.30 14.40Q163.30 14.28 163.36 14.28L163.36 14.28Q163.98 14.28 164.20 13.99Q164.42 13.70 164.42 12.90L164.42 12.90L164.42 9.32Q164.42 8.66 164.29 8.35Q164.16 8.04 163.82 8.04L163.82 8.04Q163.68 8.04 163.49 8.10Q163.30 8.16 163.08 8.26L163.08 8.26Q163.00 8.28 162.95 8.16Q162.90 8.04 162.96 8.02L162.96 8.02L165.98 6.62Q166.02 6.60 166.04 6.60L166.04 6.60Q166.14 6.60 166.24 6.70Q166.34 6.80 166.34 6.88L166.34 6.88Q166.34 7.12 166.32 7.68Q166.30 8.24 166.30 9.28L166.30 9.28L166.30 12.90Q166.30 13.70 166.53 13.99Q166.76 14.28 167.38 14.28L167.38 14.28Q167.44 14.28 167.44 14.40Q167.44 14.52 167.38 14.52L167.38 14.52Q166.98 14.52 166.46 14.50Q165.94 14.48 165.36 14.48L165.36 14.48Q164.80 14.48 164.28 14.50Q163.76 14.52 163.36 14.52ZM165.28 4.62L165.28 4.62Q164.72 4.62 164.39 4.30Q164.06 3.98 164.06 3.40L164.06 3.40Q164.06 2.88 164.39 2.57Q164.72 2.26 165.28 2.26L165.28 2.26Q165.84 2.26 166.14 2.57Q166.44 2.88 166.44 3.40L166.44 3.40Q166.44 4.62 165.28 4.62ZM172.54 14.76L172.54 14.76Q171.24 14.76 170.33 14.22Q169.42 13.68 168.95 12.79Q168.48 11.90 168.48 10.90L168.48 10.90Q168.48 9.72 169.08 8.75Q169.68 7.78 170.71 7.20Q171.74 6.62 173.04 6.62L173.04 6.62Q174.28 6.62 174.94 7.15Q175.60 7.68 175.60 8.60L175.60 8.60Q175.60 8.82 175.56 9Q175.52 9.18 175.38 9.18L175.38 9.18L173.46 9.18Q173.50 8.24 173.24 7.63Q172.98 7.02 172.30 7.02L172.30 7.02Q171.50 7.02 171.00 7.85Q170.50 8.68 170.50 10.06L170.50 10.06Q170.50 11.18 170.86 12.02Q171.22 12.86 171.90 13.32Q172.58 13.78 173.54 13.78L173.54 13.78Q174.02 13.78 174.57 13.64Q175.12 13.50 175.56 13.22L175.56 13.22Q175.60 13.18 175.67 13.26Q175.74 13.34 175.70 13.40L175.70 13.40Q174.96 14.14 174.19 14.45Q173.42 14.76 172.54 14.76ZM174.16 9.18L169.80 9.22L169.78 8.84L174.16 8.74L174.16 9.18ZM178.56 7.76L178.56 7.76Q178.56 8.18 178.79 8.51Q179.02 8.84 179.38 9.11Q179.74 9.38 180.16 9.64L180.16 9.64Q180.66 9.92 181.14 10.23Q181.62 10.54 181.94 10.98Q182.26 11.42 182.26 12.12L182.26 12.12Q182.26 12.76 181.93 13.37Q181.60 13.98 180.94 14.36Q180.28 14.74 179.28 14.74L179.28 14.74Q178.78 14.74 178.28 14.63Q177.78 14.52 177.20 14.20L177.20 14.20Q177.16 14.16 177.12 14.10Q177.08 14.04 177.08 13.96L177.08 13.96L177.04 11.98Q177.04 11.92 177.15 11.91Q177.26 11.90 177.28 11.94L177.28 11.94Q177.50 12.58 177.90 13.13Q178.30 13.68 178.81 14.01Q179.32 14.34 179.84 14.34L179.84 14.34Q180.24 14.34 180.50 14.09Q180.76 13.84 180.76 13.32L180.76 13.32Q180.76 12.76 180.51 12.39Q180.26 12.02 179.88 11.75Q179.50 11.48 179.10 11.26L179.10 11.26Q178.64 11 178.18 10.72Q177.72 10.44 177.42 10.01Q177.12 9.58 177.12 8.88L177.12 8.88Q177.12 8.04 177.54 7.54Q177.96 7.04 178.63 6.82Q179.30 6.60 180.02 6.60L180.02 6.60Q180.46 6.60 180.83 6.66Q181.20 6.72 181.68 6.90L181.68 6.90Q181.86 6.96 181.86 7.12L181.86 7.12Q181.86 7.52 181.84 7.95Q181.82 8.38 181.82 8.90L181.82 8.90Q181.82 8.96 181.70 8.96Q181.58 8.96 181.58 8.90L181.58 8.90Q181.58 8.52 181.27 8.08Q180.96 7.64 180.46 7.31Q179.96 6.98 179.38 6.98L179.38 6.98Q179.10 6.98 178.83 7.12Q178.56 7.26 178.56 7.76Z"></path></g></svg></svg>